# xmcd
#
# Track frame offsets: 
#        150
#        18874
#        35785
#        54423
#        73926
#        90471
#        109961
#        125195
#        139084
#        151235
#
# Disc length: 2390 seconds
#
# Revision: 0
# Processed by: cddbd v1.5.2PL0 Copyright (c) Steve Scherf et al.
# Submitted via: ExactAudioCopyFreeDBPlugin 1.0
#
DISCID=8b09540a
DTITLE=Natalie Cole - Unpredictable
DYEAR=1977
DGENRE=R&B
TTITLE0=This Heart
TTITLE1=Still In Love
TTITLE2=Party Lights
TTITLE3=I've Got Love On My Mind
TTITLE4=Unpredictable You
TTITLE5=Peaceful Living
TTITLE6=Be Mine Tonight
TTITLE7=I Can't Breakaway
TTITLE8=Your Eyes
TTITLE9=I'm Catching Hell
EXTD=
EXTT0=
EXTT1=
EXTT2=
EXTT3=
EXTT4=
EXTT5=
EXTT6=
EXTT7=
EXTT8=
EXTT9=
PLAYORDER=
